<mxfile host="app.diagrams.net" modified="2021-04-28T19:16:13.525Z" agent="5.0 (Macintosh; Intel Mac OS X 10_15_7) AppleWebKit/537.36 (KHTML, like Gecko) Chrome/90.0.4430.72 Safari/537.36" etag="DShWIj6b76HOvhU7VhvX" version="14.6.6" type="github" pages="3">
  <diagram id="P_D0692sPKaMSlXwOw27" name="Context Diagram">
    <mxGraphModel dx="2013" dy="618" grid="1" gridSize="10" guides="1" tooltips="1" connect="1" arrows="1" fold="1" page="1" pageScale="1" pageWidth="827" pageHeight="1169" math="0" shadow="0">
      <root>
        <mxCell id="0" />
        <mxCell id="1" parent="0" />
        <mxCell id="H6q_pykXUc_TzupKm_39-10" value="" style="rounded=0;whiteSpace=wrap;html=1;dashed=1;strokeColor=#3399FF;" parent="1" vertex="1">
          <mxGeometry x="140" y="377.5" width="410" height="265" as="geometry" />
        </mxCell>
        <mxCell id="H6q_pykXUc_TzupKm_39-11" value="&lt;h1&gt;Context Diagram&lt;/h1&gt;" style="text;html=1;strokeColor=none;fillColor=none;spacing=5;spacingTop=-20;whiteSpace=wrap;overflow=hidden;rounded=0;" parent="1" vertex="1">
          <mxGeometry x="230" y="300" width="240" height="40" as="geometry" />
        </mxCell>
        <mxCell id="H6q_pykXUc_TzupKm_39-12" style="edgeStyle=orthogonalEdgeStyle;rounded=0;jumpSize=0;orthogonalLoop=1;jettySize=auto;html=1;exitX=0;exitY=0.5;exitDx=0;exitDy=0;entryX=1;entryY=0.5;entryDx=0;entryDy=0;strokeWidth=4;" parent="1" source="H6q_pykXUc_TzupKm_39-13" target="H6q_pykXUc_TzupKm_39-17" edge="1">
          <mxGeometry relative="1" as="geometry" />
        </mxCell>
        <mxCell id="H6q_pykXUc_TzupKm_39-13" value="&lt;b style=&quot;font-size: 18px&quot;&gt;To-Do App&lt;br&gt;&lt;/b&gt;&lt;br&gt;Allows users to edit their to-do lists" style="rounded=0;whiteSpace=wrap;html=1;dashed=1;fillColor=#b0e3e6;strokeColor=#0e8088;opacity=30;" parent="1" vertex="1">
          <mxGeometry x="205" y="430" width="280" height="160" as="geometry" />
        </mxCell>
        <mxCell id="H6q_pykXUc_TzupKm_39-14" style="edgeStyle=orthogonalEdgeStyle;rounded=0;orthogonalLoop=1;jettySize=auto;html=1;entryX=1;entryY=0.5;entryDx=0;entryDy=0;jumpSize=0;strokeWidth=4;" parent="1" source="H6q_pykXUc_TzupKm_39-15" target="H6q_pykXUc_TzupKm_39-13" edge="1">
          <mxGeometry relative="1" as="geometry" />
        </mxCell>
        <mxCell id="H6q_pykXUc_TzupKm_39-15" value="&lt;b style=&quot;font-size: 18px&quot;&gt;&lt;br&gt;&lt;br&gt;&lt;br&gt;&lt;br&gt;Existing &lt;br&gt;Trello&lt;br&gt;&amp;nbsp;User&lt;/b&gt;" style="shape=actor;whiteSpace=wrap;html=1;fillColor=#e1d5e7;strokeColor=#9673a6;" parent="1" vertex="1">
          <mxGeometry x="630" y="415" width="120" height="190" as="geometry" />
        </mxCell>
        <mxCell id="H6q_pykXUc_TzupKm_39-16" value="Views and Edits To-Do List on" style="text;html=1;align=center;verticalAlign=middle;whiteSpace=wrap;rounded=0;fillColor=none;" parent="1" vertex="1">
          <mxGeometry x="560" y="440" width="60" height="70" as="geometry" />
        </mxCell>
        <mxCell id="H6q_pykXUc_TzupKm_39-17" value="&lt;font style=&quot;font-size: 18px&quot;&gt;&lt;b&gt;Trello&lt;/b&gt;&lt;/font&gt;&lt;br&gt;&lt;br&gt;Persists User&#39;s To-Do&lt;br&gt;&amp;nbsp;Item in Lists&amp;nbsp;" style="rounded=0;whiteSpace=wrap;html=1;fillColor=#f5f5f5;strokeColor=#666666;fontColor=#333333;" parent="1" vertex="1">
          <mxGeometry x="-100" y="373.75" width="160" height="272.5" as="geometry" />
        </mxCell>
        <mxCell id="H6q_pykXUc_TzupKm_39-18" value="Gets Data&lt;br&gt;From" style="text;html=1;align=center;verticalAlign=middle;whiteSpace=wrap;rounded=0;fillColor=none;" parent="1" vertex="1">
          <mxGeometry x="70" y="440" width="60" height="70" as="geometry" />
        </mxCell>
      </root>
    </mxGraphModel>
  </diagram>
  <diagram id="ECBArTkPbwSvZq1BYTsx" name="Container Diagram">
    <mxGraphModel dx="2013" dy="618" grid="1" gridSize="10" guides="1" tooltips="1" connect="1" arrows="1" fold="1" page="1" pageScale="1" pageWidth="827" pageHeight="1169" math="0" shadow="0">
      <root>
        <mxCell id="eEctlAAZ42QZpFSYuVvy-0" />
        <mxCell id="eEctlAAZ42QZpFSYuVvy-1" parent="eEctlAAZ42QZpFSYuVvy-0" />
        <mxCell id="KY0HN4XlThVVRfdpbjHU-0" value="" style="rounded=0;whiteSpace=wrap;html=1;dashed=1;strokeColor=#3399FF;" parent="eEctlAAZ42QZpFSYuVvy-1" vertex="1">
          <mxGeometry x="235" y="180" width="775" height="422.5" as="geometry" />
        </mxCell>
        <mxCell id="w9XKU5wsN16B2Dz8X8jV-0" value="" style="rounded=0;whiteSpace=wrap;html=1;dashed=1;strokeColor=#3399FF;" parent="eEctlAAZ42QZpFSYuVvy-1" vertex="1">
          <mxGeometry x="263" y="250" width="497" height="260" as="geometry" />
        </mxCell>
        <mxCell id="w9XKU5wsN16B2Dz8X8jV-1" value="&lt;h1&gt;Container Diagram&lt;/h1&gt;" style="text;html=1;strokeColor=none;fillColor=none;spacing=5;spacingTop=-20;whiteSpace=wrap;overflow=hidden;rounded=0;" parent="eEctlAAZ42QZpFSYuVvy-1" vertex="1">
          <mxGeometry x="510" y="120" width="240" height="40" as="geometry" />
        </mxCell>
        <mxCell id="w9XKU5wsN16B2Dz8X8jV-2" style="edgeStyle=orthogonalEdgeStyle;rounded=0;jumpSize=0;orthogonalLoop=1;jettySize=auto;html=1;entryX=1;entryY=0.5;entryDx=0;entryDy=0;strokeWidth=4;exitX=0;exitY=0.5;exitDx=0;exitDy=0;" parent="eEctlAAZ42QZpFSYuVvy-1" source="8ym-L0HSI-9rLCat4ePh-0" target="w9XKU5wsN16B2Dz8X8jV-7" edge="1">
          <mxGeometry relative="1" as="geometry">
            <mxPoint x="290" y="375" as="sourcePoint" />
          </mxGeometry>
        </mxCell>
        <mxCell id="w9XKU5wsN16B2Dz8X8jV-4" style="edgeStyle=orthogonalEdgeStyle;rounded=0;orthogonalLoop=1;jettySize=auto;html=1;entryX=1;entryY=0.5;entryDx=0;entryDy=0;jumpSize=0;strokeWidth=4;" parent="eEctlAAZ42QZpFSYuVvy-1" source="w9XKU5wsN16B2Dz8X8jV-5" target="8ym-L0HSI-9rLCat4ePh-2" edge="1">
          <mxGeometry relative="1" as="geometry">
            <mxPoint x="1000" y="374.9999999999998" as="targetPoint" />
          </mxGeometry>
        </mxCell>
        <mxCell id="w9XKU5wsN16B2Dz8X8jV-5" value="&lt;b style=&quot;font-size: 18px&quot;&gt;&lt;br&gt;&lt;br&gt;&lt;br&gt;&lt;br&gt;Existing &lt;br&gt;Trello&lt;br&gt;&amp;nbsp;User&lt;/b&gt;" style="shape=actor;whiteSpace=wrap;html=1;fillColor=#e1d5e7;strokeColor=#9673a6;" parent="eEctlAAZ42QZpFSYuVvy-1" vertex="1">
          <mxGeometry x="1108" y="280" width="120" height="190" as="geometry" />
        </mxCell>
        <mxCell id="w9XKU5wsN16B2Dz8X8jV-6" value="Views and Edits To-Do List on" style="text;html=1;align=center;verticalAlign=middle;whiteSpace=wrap;rounded=0;fillColor=none;" parent="eEctlAAZ42QZpFSYuVvy-1" vertex="1">
          <mxGeometry x="1038" y="300" width="60" height="70" as="geometry" />
        </mxCell>
        <mxCell id="w9XKU5wsN16B2Dz8X8jV-7" value="&lt;font style=&quot;font-size: 18px&quot;&gt;&lt;b&gt;Trello&lt;/b&gt;&lt;/font&gt;&lt;br&gt;&lt;br&gt;Persists User&#39;s To-Do&lt;br&gt;&amp;nbsp;Item in Lists&amp;nbsp;" style="rounded=0;whiteSpace=wrap;html=1;fillColor=#f5f5f5;strokeColor=#666666;fontColor=#333333;" parent="eEctlAAZ42QZpFSYuVvy-1" vertex="1">
          <mxGeometry x="-30" y="238.75" width="160" height="272.5" as="geometry" />
        </mxCell>
        <mxCell id="w9XKU5wsN16B2Dz8X8jV-8" value="Gets Data&lt;br&gt;From" style="text;html=1;align=center;verticalAlign=middle;whiteSpace=wrap;rounded=0;fillColor=none;" parent="eEctlAAZ42QZpFSYuVvy-1" vertex="1">
          <mxGeometry x="150" y="286.25" width="60" height="70" as="geometry" />
        </mxCell>
        <mxCell id="8ym-L0HSI-9rLCat4ePh-0" value="&lt;span style=&quot;font-size: 18px&quot;&gt;&lt;b&gt;Application &lt;br&gt;Code&lt;/b&gt;&lt;/span&gt;" style="rounded=0;whiteSpace=wrap;html=1;dashed=1;fillColor=#f8cecc;strokeColor=#b85450;" parent="eEctlAAZ42QZpFSYuVvy-1" vertex="1">
          <mxGeometry x="282" y="274.5" width="132" height="200" as="geometry" />
        </mxCell>
        <mxCell id="8ym-L0HSI-9rLCat4ePh-3" style="edgeStyle=orthogonalEdgeStyle;rounded=0;jumpSize=0;orthogonalLoop=1;jettySize=auto;html=1;exitX=0;exitY=0.5;exitDx=0;exitDy=0;entryX=1;entryY=0.5;entryDx=0;entryDy=0;strokeWidth=4;" parent="eEctlAAZ42QZpFSYuVvy-1" source="8ym-L0HSI-9rLCat4ePh-1" target="8ym-L0HSI-9rLCat4ePh-0" edge="1">
          <mxGeometry relative="1" as="geometry" />
        </mxCell>
        <mxCell id="8ym-L0HSI-9rLCat4ePh-1" value="&lt;b&gt;&lt;font style=&quot;font-size: 18px&quot;&gt;Flask&lt;/font&gt;&lt;/b&gt;&lt;br&gt;&lt;span style=&quot;font-size: 11px&quot;&gt;RESTFul Web Server Framework&lt;/span&gt;&lt;br&gt;" style="rounded=0;whiteSpace=wrap;html=1;dashed=1;fillColor=#dae8fc;strokeColor=#6c8ebf;" parent="eEctlAAZ42QZpFSYuVvy-1" vertex="1">
          <mxGeometry x="505.75" y="274.5" width="213.5" height="200" as="geometry" />
        </mxCell>
        <mxCell id="8ym-L0HSI-9rLCat4ePh-4" style="edgeStyle=orthogonalEdgeStyle;rounded=0;jumpSize=0;orthogonalLoop=1;jettySize=auto;html=1;exitX=0;exitY=0.5;exitDx=0;exitDy=0;entryX=1;entryY=0.5;entryDx=0;entryDy=0;strokeWidth=4;" parent="eEctlAAZ42QZpFSYuVvy-1" source="8ym-L0HSI-9rLCat4ePh-2" target="8ym-L0HSI-9rLCat4ePh-1" edge="1">
          <mxGeometry relative="1" as="geometry" />
        </mxCell>
        <mxCell id="8ym-L0HSI-9rLCat4ePh-2" value="&lt;span style=&quot;font-size: 18px&quot;&gt;&lt;b&gt;GUnicorn&lt;br&gt;&lt;/b&gt;&lt;/span&gt;WSGI Server&lt;br&gt;- Handling Requests&lt;br&gt;- Manages Flask Processes&lt;br&gt;- Distributes Load" style="rounded=0;whiteSpace=wrap;html=1;dashed=1;fillColor=#d5e8d4;strokeColor=#82b366;" parent="eEctlAAZ42QZpFSYuVvy-1" vertex="1">
          <mxGeometry x="850" y="275" width="132" height="200" as="geometry" />
        </mxCell>
        <mxCell id="8ym-L0HSI-9rLCat4ePh-5" value="Sends requests to" style="text;html=1;align=center;verticalAlign=middle;whiteSpace=wrap;rounded=0;fillColor=none;" parent="eEctlAAZ42QZpFSYuVvy-1" vertex="1">
          <mxGeometry x="770" y="286.75" width="60" height="70" as="geometry" />
        </mxCell>
        <mxCell id="8ym-L0HSI-9rLCat4ePh-6" value="Makes calls to&amp;nbsp;" style="text;html=1;align=center;verticalAlign=middle;whiteSpace=wrap;rounded=0;fillColor=none;" parent="eEctlAAZ42QZpFSYuVvy-1" vertex="1">
          <mxGeometry x="430" y="286.25" width="60" height="70" as="geometry" />
        </mxCell>
      </root>
    </mxGraphModel>
  </diagram>
  <diagram id="ACXfOB7_JTHI6shjiELk" name="Component Diagram">
    <mxGraphModel dx="2521" dy="883" grid="1" gridSize="10" guides="1" tooltips="1" connect="1" arrows="1" fold="1" page="1" pageScale="1" pageWidth="827" pageHeight="1169" math="0" shadow="0">
      <root>
        <mxCell id="cO2mXrxBFsUzvyZDjW94-0" />
        <mxCell id="cO2mXrxBFsUzvyZDjW94-1" parent="cO2mXrxBFsUzvyZDjW94-0" />
        <mxCell id="SN9PklAQMyP3SkGH3xaU-0" value="" style="rounded=0;whiteSpace=wrap;html=1;dashed=1;strokeColor=#3399FF;" parent="cO2mXrxBFsUzvyZDjW94-1" vertex="1">
          <mxGeometry x="190" y="140" width="1130" height="550" as="geometry" />
        </mxCell>
        <mxCell id="SN9PklAQMyP3SkGH3xaU-1" value="&lt;h1&gt;Component Diagram&lt;/h1&gt;" style="text;html=1;strokeColor=none;fillColor=none;spacing=5;spacingTop=-20;whiteSpace=wrap;overflow=hidden;rounded=0;" parent="cO2mXrxBFsUzvyZDjW94-1" vertex="1">
          <mxGeometry x="540" y="90" width="280" height="40" as="geometry" />
        </mxCell>
        <mxCell id="SN9PklAQMyP3SkGH3xaU-6" value="&lt;font style=&quot;font-size: 18px&quot;&gt;&lt;b&gt;Trello&lt;/b&gt;&lt;/font&gt;&lt;br&gt;&lt;br&gt;Persists User&#39;s To-Do&lt;br&gt;&amp;nbsp;Item in Lists&amp;nbsp;" style="rounded=0;whiteSpace=wrap;html=1;fillColor=#f5f5f5;strokeColor=#666666;fontColor=#333333;" parent="cO2mXrxBFsUzvyZDjW94-1" vertex="1">
          <mxGeometry x="-40" y="220" width="160" height="420" as="geometry" />
        </mxCell>
        <mxCell id="ep9rjCGGFKAzPxdKPk3z-4" value="" style="rounded=0;whiteSpace=wrap;html=1;dashed=1;strokeColor=#3399FF;" parent="cO2mXrxBFsUzvyZDjW94-1" vertex="1">
          <mxGeometry x="507.5" y="190" width="422.5" height="140" as="geometry" />
        </mxCell>
        <mxCell id="GmsxFd2_0TZQ3wx0YIiD-10" style="edgeStyle=orthogonalEdgeStyle;rounded=0;orthogonalLoop=1;jettySize=auto;html=1;exitX=1;exitY=0.5;exitDx=0;exitDy=0;entryX=0;entryY=0.5;entryDx=0;entryDy=0;strokeWidth=4;" edge="1" parent="cO2mXrxBFsUzvyZDjW94-1" source="ep9rjCGGFKAzPxdKPk3z-1" target="ep9rjCGGFKAzPxdKPk3z-6">
          <mxGeometry relative="1" as="geometry" />
        </mxCell>
        <mxCell id="ep9rjCGGFKAzPxdKPk3z-1" value="&lt;b style=&quot;font-size: 18px&quot;&gt;Card&lt;/b&gt;&lt;br&gt;&lt;font style=&quot;font-size: 12px&quot;&gt;Holds data &lt;br&gt;for a &lt;br&gt;single To-Do&lt;/font&gt;" style="rounded=0;whiteSpace=wrap;html=1;dashed=1;fillColor=#f8cecc;strokeColor=#b85450;" parent="cO2mXrxBFsUzvyZDjW94-1" vertex="1">
          <mxGeometry x="550" y="226.25" width="90" height="83.75" as="geometry" />
        </mxCell>
        <mxCell id="ep9rjCGGFKAzPxdKPk3z-5" value="Data Package: Python Classes" style="text;html=1;strokeColor=none;fillColor=none;align=center;verticalAlign=middle;whiteSpace=wrap;rounded=0;" parent="cO2mXrxBFsUzvyZDjW94-1" vertex="1">
          <mxGeometry x="520" y="200" width="170" height="20" as="geometry" />
        </mxCell>
        <mxCell id="ep9rjCGGFKAzPxdKPk3z-6" value="&lt;font style=&quot;font-size: 18px&quot;&gt;&lt;b&gt;View Model&lt;br&gt;&lt;/b&gt;&lt;/font&gt;Holds all data that the template needs" style="rounded=0;whiteSpace=wrap;html=1;dashed=1;fillColor=#f8cecc;strokeColor=#b85450;" parent="cO2mXrxBFsUzvyZDjW94-1" vertex="1">
          <mxGeometry x="740" y="226.25" width="150" height="83.75" as="geometry" />
        </mxCell>
        <mxCell id="ep9rjCGGFKAzPxdKPk3z-7" value="" style="rounded=0;whiteSpace=wrap;html=1;dashed=1;strokeColor=#3399FF;" parent="cO2mXrxBFsUzvyZDjW94-1" vertex="1">
          <mxGeometry x="463.75" y="520" width="510" height="110" as="geometry" />
        </mxCell>
        <mxCell id="GmsxFd2_0TZQ3wx0YIiD-17" style="edgeStyle=orthogonalEdgeStyle;rounded=0;orthogonalLoop=1;jettySize=auto;html=1;exitX=1;exitY=0.5;exitDx=0;exitDy=0;entryX=0;entryY=0.75;entryDx=0;entryDy=0;strokeWidth=4;" edge="1" parent="cO2mXrxBFsUzvyZDjW94-1" source="ep9rjCGGFKAzPxdKPk3z-0" target="uIqKK-yFlBgRl6WMD22s-0">
          <mxGeometry relative="1" as="geometry" />
        </mxCell>
        <mxCell id="ep9rjCGGFKAzPxdKPk3z-0" value="&lt;span style=&quot;font-weight: bold ; font-size: 18px&quot;&gt;Jinja Template&lt;/span&gt;&lt;br&gt;&lt;font style=&quot;font-size: 12px&quot;&gt;Templated HTML that is populated with data held in a view model&lt;/font&gt;" style="rounded=0;whiteSpace=wrap;html=1;dashed=1;fillColor=#f8cecc;strokeColor=#b85450;" parent="cO2mXrxBFsUzvyZDjW94-1" vertex="1">
          <mxGeometry x="496.25" y="560" width="440" height="50" as="geometry" />
        </mxCell>
        <mxCell id="ep9rjCGGFKAzPxdKPk3z-8" value="Template Package" style="text;html=1;strokeColor=none;fillColor=none;align=center;verticalAlign=middle;whiteSpace=wrap;rounded=0;" parent="cO2mXrxBFsUzvyZDjW94-1" vertex="1">
          <mxGeometry x="473.75" y="530" width="120" height="20" as="geometry" />
        </mxCell>
        <mxCell id="uIqKK-yFlBgRl6WMD22s-7" value="" style="rounded=0;whiteSpace=wrap;html=1;dashed=1;strokeColor=#3399FF;" parent="cO2mXrxBFsUzvyZDjW94-1" vertex="1">
          <mxGeometry x="230" y="180" width="200" height="470" as="geometry" />
        </mxCell>
        <mxCell id="GmsxFd2_0TZQ3wx0YIiD-5" style="edgeStyle=orthogonalEdgeStyle;rounded=0;orthogonalLoop=1;jettySize=auto;html=1;exitX=1;exitY=0.25;exitDx=0;exitDy=0;entryX=0;entryY=0.5;entryDx=0;entryDy=0;strokeWidth=4;" edge="1" parent="cO2mXrxBFsUzvyZDjW94-1" source="SN9PklAQMyP3SkGH3xaU-8" target="ep9rjCGGFKAzPxdKPk3z-1">
          <mxGeometry relative="1" as="geometry" />
        </mxCell>
        <mxCell id="SN9PklAQMyP3SkGH3xaU-8" value="&lt;span style=&quot;font-weight: bold ; font-size: 18px&quot;&gt;Trello Service&lt;/span&gt;&lt;br&gt;&lt;br&gt;&lt;font style=&quot;font-size: 12px&quot;&gt;Has methods to&lt;br&gt;- Get all To-Do (returns an array of Cards)&amp;nbsp;&lt;br&gt;- Create a new To-do&lt;br&gt;- Move a To-do to another list&lt;br&gt;- Delete a todo&lt;/font&gt;&lt;b style=&quot;font-size: 18px&quot;&gt;&amp;nbsp;&lt;br&gt;&lt;/b&gt;" style="rounded=0;whiteSpace=wrap;html=1;dashed=1;fillColor=#f8cecc;strokeColor=#b85450;" parent="cO2mXrxBFsUzvyZDjW94-1" vertex="1">
          <mxGeometry x="270" y="220" width="132" height="420" as="geometry" />
        </mxCell>
        <mxCell id="uIqKK-yFlBgRl6WMD22s-6" style="edgeStyle=orthogonalEdgeStyle;rounded=0;orthogonalLoop=1;jettySize=auto;html=1;exitX=0;exitY=0.75;exitDx=0;exitDy=0;entryX=1;entryY=0.75;entryDx=0;entryDy=0;strokeWidth=4;" parent="cO2mXrxBFsUzvyZDjW94-1" source="SN9PklAQMyP3SkGH3xaU-8" target="SN9PklAQMyP3SkGH3xaU-6" edge="1">
          <mxGeometry relative="1" as="geometry" />
        </mxCell>
        <mxCell id="SN9PklAQMyP3SkGH3xaU-2" style="edgeStyle=orthogonalEdgeStyle;rounded=0;jumpSize=0;orthogonalLoop=1;jettySize=auto;html=1;entryX=1;entryY=0.25;entryDx=0;entryDy=0;strokeWidth=4;exitX=0;exitY=0.25;exitDx=0;exitDy=0;" parent="cO2mXrxBFsUzvyZDjW94-1" source="SN9PklAQMyP3SkGH3xaU-8" target="SN9PklAQMyP3SkGH3xaU-6" edge="1">
          <mxGeometry relative="1" as="geometry">
            <mxPoint x="290" y="375" as="sourcePoint" />
          </mxGeometry>
        </mxCell>
        <mxCell id="uIqKK-yFlBgRl6WMD22s-8" value="&lt;b&gt;Application Code&lt;/b&gt;" style="text;html=1;strokeColor=none;fillColor=none;align=center;verticalAlign=middle;whiteSpace=wrap;rounded=0;" parent="cO2mXrxBFsUzvyZDjW94-1" vertex="1">
          <mxGeometry x="200" y="150" width="120" height="20" as="geometry" />
        </mxCell>
        <mxCell id="uIqKK-yFlBgRl6WMD22s-9" value="Services Package" style="text;html=1;strokeColor=none;fillColor=none;align=center;verticalAlign=middle;whiteSpace=wrap;rounded=0;" parent="cO2mXrxBFsUzvyZDjW94-1" vertex="1">
          <mxGeometry x="250" y="190" width="120" height="20" as="geometry" />
        </mxCell>
        <mxCell id="GmsxFd2_0TZQ3wx0YIiD-1" value="" style="rounded=0;whiteSpace=wrap;html=1;dashed=1;strokeColor=#3399FF;" vertex="1" parent="cO2mXrxBFsUzvyZDjW94-1">
          <mxGeometry x="1060" y="180" width="200" height="470" as="geometry" />
        </mxCell>
        <mxCell id="uIqKK-yFlBgRl6WMD22s-0" value="&lt;b&gt;&lt;font style=&quot;font-size: 18px&quot;&gt;Flask &lt;br&gt;App&lt;/font&gt;&lt;/b&gt;" style="rounded=0;whiteSpace=wrap;html=1;dashed=1;fillColor=#dae8fc;strokeColor=#6c8ebf;" parent="cO2mXrxBFsUzvyZDjW94-1" vertex="1">
          <mxGeometry x="1095" y="220" width="130" height="420" as="geometry" />
        </mxCell>
        <mxCell id="GmsxFd2_0TZQ3wx0YIiD-0" style="edgeStyle=orthogonalEdgeStyle;rounded=0;orthogonalLoop=1;jettySize=auto;html=1;exitX=0;exitY=0.5;exitDx=0;exitDy=0;strokeWidth=4;" edge="1" parent="cO2mXrxBFsUzvyZDjW94-1" source="uIqKK-yFlBgRl6WMD22s-0" target="SN9PklAQMyP3SkGH3xaU-8">
          <mxGeometry relative="1" as="geometry" />
        </mxCell>
        <mxCell id="GmsxFd2_0TZQ3wx0YIiD-2" value="App.py" style="text;html=1;strokeColor=none;fillColor=none;align=center;verticalAlign=middle;whiteSpace=wrap;rounded=0;" vertex="1" parent="cO2mXrxBFsUzvyZDjW94-1">
          <mxGeometry x="1085" y="191.88" width="40" height="20" as="geometry" />
        </mxCell>
        <mxCell id="GmsxFd2_0TZQ3wx0YIiD-3" value="Makes Requests to" style="text;html=1;strokeColor=none;fillColor=none;align=center;verticalAlign=middle;whiteSpace=wrap;rounded=0;" vertex="1" parent="cO2mXrxBFsUzvyZDjW94-1">
          <mxGeometry x="580" y="400" width="170" height="20" as="geometry" />
        </mxCell>
        <mxCell id="GmsxFd2_0TZQ3wx0YIiD-6" value="Returns Array Of" style="text;html=1;strokeColor=none;fillColor=none;align=center;verticalAlign=middle;whiteSpace=wrap;rounded=0;" vertex="1" parent="cO2mXrxBFsUzvyZDjW94-1">
          <mxGeometry x="433.75" y="220" width="73.75" height="20" as="geometry" />
        </mxCell>
        <mxCell id="GmsxFd2_0TZQ3wx0YIiD-11" value="Gets &lt;br&gt;Added to" style="text;html=1;strokeColor=none;fillColor=none;align=center;verticalAlign=middle;whiteSpace=wrap;rounded=0;" vertex="1" parent="cO2mXrxBFsUzvyZDjW94-1">
          <mxGeometry x="650" y="240" width="73.75" height="20" as="geometry" />
        </mxCell>
        <mxCell id="GmsxFd2_0TZQ3wx0YIiD-14" style="edgeStyle=orthogonalEdgeStyle;rounded=0;orthogonalLoop=1;jettySize=auto;html=1;exitX=1;exitY=0.5;exitDx=0;exitDy=0;entryX=0;entryY=0.25;entryDx=0;entryDy=0;strokeWidth=4;" edge="1" parent="cO2mXrxBFsUzvyZDjW94-1" source="ep9rjCGGFKAzPxdKPk3z-6" target="uIqKK-yFlBgRl6WMD22s-0">
          <mxGeometry relative="1" as="geometry" />
        </mxCell>
        <mxCell id="GmsxFd2_0TZQ3wx0YIiD-15" value="Constructed&amp;nbsp;&lt;br&gt;By" style="text;html=1;strokeColor=none;fillColor=none;align=center;verticalAlign=middle;whiteSpace=wrap;rounded=0;" vertex="1" parent="cO2mXrxBFsUzvyZDjW94-1">
          <mxGeometry x="960" y="230" width="73.75" height="20" as="geometry" />
        </mxCell>
        <mxCell id="GmsxFd2_0TZQ3wx0YIiD-18" value="Rendered&amp;nbsp;&lt;br&gt;By" style="text;html=1;strokeColor=none;fillColor=none;align=center;verticalAlign=middle;whiteSpace=wrap;rounded=0;" vertex="1" parent="cO2mXrxBFsUzvyZDjW94-1">
          <mxGeometry x="973.75" y="500" width="73.75" height="20" as="geometry" />
        </mxCell>
      </root>
    </mxGraphModel>
  </diagram>
</mxfile>
